<?xml version="1.0" encoding="UTF-8" standalone="no"?>
<svg width="45px" height="46px" viewBox="0 0 45 46" version="1.1" xmlns="http://www.w3.org/2000/svg" xmlns:xlink="http://www.w3.org/1999/xlink" xmlns:sketch="http://www.bohemiancoding.com/sketch/ns">
    <!-- Generator: Sketch 3.1.1 (8761) - http://www.bohemiancoding.com/sketch -->
    <title>noun_45357_cc 3</title>
    <desc>Created with Sketch.</desc>
    <defs></defs>
    <g id="Welcome" stroke="none" stroke-width="1" fill="none" fill-rule="evenodd" sketch:type="MSPage">
        <g id="List-of-topics" sketch:type="MSArtboardGroup" transform="translate(-521.000000, -507.000000)" fill="#000000">
            <g id="noun_45357_cc-3" sketch:type="MSLayerGroup" transform="translate(543.500000, 530.500000) scale(1, -1) translate(-543.500000, -530.500000) translate(521.000000, 508.000000)">
                <path d="M0,5.32907052e-15 L0,25.7142857 L9.64285714,25.7142857 L9.64285714,5.32907052e-15 L0,5.32907052e-15 L0,5.32907052e-15 Z M12.8571429,1.17445736e-14 L12.8571429,25.7142857 C14.7857143,25.7142857 16.0907143,26.3378571 17.3764286,27.6235714 C18.6621429,28.9092857 24.75,41.1846429 25.7142857,42.7917857 C26.6785714,44.3989286 28.3275,45.3214286 29.9346429,45.0032143 C31.5417857,44.3603571 32.4642857,42.7114286 32.1460714,40.7828571 C31.5032143,39.1757143 28.9317857,30.5357143 28.9317857,28.9285714 C28.9317857,27.3214286 30.2175,25.7142857 32.1460714,25.7142857 L41.7889286,25.7142857 C43.7175,25.7142857 45.0032143,24.4285714 45.0032143,22.5 L38.2725,1.90928571 C37.9510714,0.945 36.6460714,7.10542736e-15 35.3603571,7.10542736e-15 L12.8603571,7.10542736e-15 L12.8571429,1.17445736e-14 Z" id="Shape" sketch:type="MSShapeGroup"></path>
            </g>
        </g>
    </g>
</svg>