<?xml version="1.0" encoding="UTF-8" standalone="no"?>
<svg width="41px" height="41px" viewBox="0 0 41 41" version="1.1" xmlns="http://www.w3.org/2000/svg" xmlns:xlink="http://www.w3.org/1999/xlink" xmlns:sketch="http://www.bohemiancoding.com/sketch/ns">
    <!-- Generator: Sketch 3.1.1 (8761) - http://www.bohemiancoding.com/sketch -->
    <title>noun_139194_cc</title>
    <desc>Created with Sketch.</desc>
    <defs></defs>
    <g id="Page-1" stroke="none" stroke-width="1" fill="none" fill-rule="evenodd" sketch:type="MSPage">
        <g id="noun_139194_cc" sketch:type="MSLayerGroup" fill="#777777">
            <path d="M3.0609862,0 C2.79620666,5.535e-05 2.58157423,0.2146883 2.58151887,0.479467837 L2.58151887,4.84172382 L0.479467837,4.84172382 C0.2146883,4.84177918 5.535e-05,5.05641161 0,5.32119115 L0,35.6577881 C5.535e-05,35.9225682 0.214687788,36.1372006 0.479467837,36.137256 L2.58151887,36.137256 L2.58151887,40.5205322 C2.58157422,40.7853117 2.79620666,40.9999446 3.0609862,41 L5.14201654,41 C5.40679659,40.9999446 5.62142902,40.7853122 5.62148438,40.5205322 L5.62148438,36.137256 L7.72353541,36.137256 C7.98831546,36.1372006 8.2029479,35.9225682 8.20300325,35.6577881 L8.20300325,33.1703612 L32.7979982,33.1703612 L32.7979982,35.6577881 C32.7980535,35.9225682 33.012686,36.1372006 33.277466,36.137256 L35.3795165,36.137256 L35.3795165,40.5205322 C35.3795719,40.7853122 35.5942043,40.9999446 35.8589844,41 L37.9390138,41 C38.2037938,40.9999446 38.4184263,40.7853122 38.4184816,40.5205322 L38.4184816,36.137256 L40.5205322,36.137256 C40.7853122,36.1372006 40.9999446,35.9225682 41,35.6577881 L41,5.32119115 C40.9999446,5.05641161 40.7853117,4.84177918 40.5205322,4.84172383 L38.4184816,4.84172383 L38.4184816,0.479467838 C38.4184263,0.214687788 38.2037938,5.535e-05 37.9390138,0 L35.8589844,0 C35.5942043,5.535e-05 35.3795719,0.214687788 35.3795165,0.479467837 L35.3795165,4.84172382 L33.277466,4.84172382 C33.0126865,4.84177918 32.7980535,5.05641161 32.7979982,5.32119115 L32.7979982,7.8296388 L8.20300325,7.8296388 L8.20300325,5.32119115 C8.2029479,5.05641161 7.98831495,4.84177918 7.72353541,4.84172383 L5.62148438,4.84172383 L5.62148438,0.479467838 C5.62142902,0.214687788 5.40679659,5.535e-05 5.14201654,0 L3.0609862,0 Z M3.54045404,0.958935675 L4.6625487,0.958935675 L4.6625487,5.32119115 C4.66260405,5.5859712 4.87723649,5.80060364 5.14201654,5.80065899 L7.24406757,5.80065899 L7.24406757,35.1783203 L5.14201654,35.1783203 C4.87723649,35.1783757 4.66260405,35.3930081 4.6625487,35.6577882 L4.6625487,40.0410643 L3.54045404,40.0410643 L3.54045404,35.6577882 C3.54039869,35.3930081 3.32576625,35.1783757 3.0609862,35.1783203 L0.958935675,35.1783203 L0.958935675,5.80065899 L3.0609862,5.80065899 C3.32576625,5.80060364 3.54039869,5.5859712 3.54045404,5.32119115 L3.54045404,0.958935675 Z M36.3384522,0.958935675 L37.459546,0.958935675 L37.459546,5.32119115 C37.4596013,5.5859712 37.6742337,5.80060364 37.9390138,5.80065899 L40.0410643,5.80065899 L40.0410643,35.1783203 L37.9390138,35.1783203 C37.6742337,35.1783757 37.4596013,35.3930081 37.459546,35.6577882 L37.459546,40.0410643 L36.3384522,40.0410643 L36.3384522,35.6577882 C36.3383969,35.3930081 36.1237644,35.1783757 35.8589844,35.1783203 L33.7569338,35.1783203 L33.7569338,5.80065899 L35.8589844,5.80065899 C36.1237644,5.80060364 36.3383969,5.5859712 36.3384522,5.32119115 L36.3384522,0.958935675 Z M8.20300325,8.78857447 L32.7979982,8.78857447 L32.7979982,32.2114255 L8.20300325,32.2114255 L8.20300325,8.78857447 Z" id="Shape" sketch:type="MSShapeGroup"></path>
        </g>
    </g>
</svg>