<?xml version="1.0" encoding="UTF-8" standalone="no"?>
<svg width="80px" height="80px" viewBox="0 0 80 80" version="1.1" xmlns="http://www.w3.org/2000/svg" xmlns:xlink="http://www.w3.org/1999/xlink" xmlns:sketch="http://www.bohemiancoding.com/sketch/ns">
    <!-- Generator: Sketch 3.1.1 (8761) - http://www.bohemiancoding.com/sketch -->
    <title>noun_139194_cc</title>
    <desc>Created with Sketch.</desc>
    <defs></defs>
    <g id="Page-1" stroke="none" stroke-width="1" fill="none" fill-rule="evenodd" sketch:type="MSPage">
        <g id="noun_139194_cc" sketch:type="MSLayerGroup" fill="#777777">
            <path d="M5.972656,0 C5.456013,0.000108 5.037218,0.418904 5.03711,0.935547 L5.03711,9.447266 L0.935547,9.447266 C0.418904,9.447374 0.000108,9.866169 0,10.382812 L0,69.576172 C0.000108,70.092816 0.418903,70.511611 0.935547,70.511719 L5.03711,70.511719 L5.03711,79.064453 C5.037218,79.581096 5.456013,79.999892 5.972656,80 L10.033203,80 C10.549847,79.999892 10.968642,79.581097 10.96875,79.064453 L10.96875,70.511719 L15.070313,70.511719 C15.586957,70.511611 16.005752,70.092816 16.00586,69.576172 L16.00586,64.722656 L63.996094,64.722656 L63.996094,69.576172 C63.996202,70.092816 64.414997,70.511611 64.931641,70.511719 L69.033203,70.511719 L69.033203,79.064453 C69.033311,79.581097 69.452106,79.999892 69.96875,80 L74.027344,80 C74.543988,79.999892 74.962783,79.581097 74.962891,79.064453 L74.962891,70.511719 L79.064453,70.511719 C79.581097,70.511611 79.999892,70.092816 80,69.576172 L80,10.382812 C79.999892,9.866169 79.581096,9.447374 79.064453,9.447266 L74.962891,9.447266 L74.962891,0.935547 C74.962783,0.418903 74.543988,0.000108 74.027344,0 L69.96875,0 C69.452106,0.000108 69.033311,0.418903 69.033203,0.935547 L69.033203,9.447266 L64.931641,9.447266 C64.414998,9.447374 63.996202,9.866169 63.996094,10.382812 L63.996094,15.277344 L16.00586,15.277344 L16.00586,10.382812 C16.005752,9.866169 15.586956,9.447374 15.070313,9.447266 L10.96875,9.447266 L10.96875,0.935547 C10.968642,0.418903 10.549847,0.000108 10.033203,0 L5.972656,0 Z M6.908203,1.871094 L9.097656,1.871094 L9.097656,10.382812 C9.097764,10.899456 9.516559,11.318251 10.033203,11.318359 L14.134766,11.318359 L14.134766,68.640625 L10.033203,68.640625 C9.516559,68.640733 9.097764,69.059528 9.097656,69.576172 L9.097656,78.128906 L6.908203,78.128906 L6.908203,69.576172 C6.908095,69.059528 6.4893,68.640733 5.972656,68.640625 L1.871094,68.640625 L1.871094,11.318359 L5.972656,11.318359 C6.4893,11.318251 6.908095,10.899456 6.908203,10.382812 L6.908203,1.871094 Z M70.904297,1.871094 L73.091797,1.871094 L73.091797,10.382812 C73.091905,10.899456 73.5107,11.318251 74.027344,11.318359 L78.128906,11.318359 L78.128906,68.640625 L74.027344,68.640625 C73.5107,68.640733 73.091905,69.059528 73.091797,69.576172 L73.091797,78.128906 L70.904297,78.128906 L70.904297,69.576172 C70.904189,69.059528 70.485394,68.640733 69.96875,68.640625 L65.867188,68.640625 L65.867188,11.318359 L69.96875,11.318359 C70.485394,11.318251 70.904189,10.899456 70.904297,10.382812 L70.904297,1.871094 Z M16.00586,17.148438 L63.996094,17.148438 L63.996094,62.851562 L16.00586,62.851562 L16.00586,17.148438 Z" id="Shape" sketch:type="MSShapeGroup"></path>
            <path d="M20.925608,25 C20.4144303,25.0000548 20.0000516,25.4448124 20,25.993466 L20,26.779315 C20.0000516,27.3279686 20.4144303,27.7727262 20.925608,27.772781 L59.074392,27.772781 C59.5855697,27.7727262 59.9999484,27.3279686 60,26.779315 L60,25.993466 C59.9999484,25.4448124 59.5855697,25.0000548 59.074392,25 L20.925608,25 L20.925608,25 Z" id="Shape" sketch:type="MSShapeGroup"></path>
            <path d="M20.925608,31.806804 C20.4144303,31.8068588 20.0000516,32.2516164 20,32.80027 L20,33.586117 C20.000051,34.134771 20.41443,34.5795292 20.925608,34.579584 L59.074392,34.579584 C59.58557,34.5795292 59.999949,34.134771 60,33.586117 L60,32.80027 C59.9999484,32.2516164 59.5855697,31.8068588 59.074392,31.806804 L20.925608,31.806804 L20.925608,31.806804 Z" id="Shape" sketch:type="MSShapeGroup"></path>
            <path d="M20.925608,45.420416 C20.41443,45.4204708 20.000051,45.865229 20,46.413883 L20,47.19973 C20.000051,47.748384 20.41443,48.1931422 20.925608,48.193197 L59.074392,48.193197 C59.58557,48.1931422 59.999949,47.748384 60,47.19973 L60,46.413883 C59.999949,45.865229 59.58557,45.4204708 59.074392,45.420416 L20.925608,45.420416 L20.925608,45.420416 Z" id="Shape" sketch:type="MSShapeGroup"></path>
            <path d="M20.925608,52.227219 C20.4144303,52.2272738 20.0000516,52.6720314 20,53.220685 L20,54.006534 C20.0000516,54.5551876 20.4144303,54.9999452 20.925608,55 L59.074392,55 C59.5855697,54.9999452 59.9999484,54.5551876 60,54.006534 L60,53.220685 C59.9999484,52.6720314 59.5855697,52.2272738 59.074392,52.227219 L20.925608,52.227219 L20.925608,52.227219 Z" id="Shape" sketch:type="MSShapeGroup"></path>
        </g>
    </g>
</svg>