<?xml version="1.0" encoding="UTF-8" standalone="no"?>
<svg width="49px" height="49px" viewBox="0 0 49 49" version="1.1" xmlns="http://www.w3.org/2000/svg" xmlns:xlink="http://www.w3.org/1999/xlink" xmlns:sketch="http://www.bohemiancoding.com/sketch/ns">
    <!-- Generator: Sketch 3.1.1 (8761) - http://www.bohemiancoding.com/sketch -->
    <title>noun_182908_cc</title>
    <desc>Created with Sketch.</desc>
    <defs></defs>
    <g id="Welcome" stroke="none" stroke-width="1" fill="none" fill-rule="evenodd" sketch:type="MSPage">
        <g id="List-of-topics" sketch:type="MSArtboardGroup" transform="translate(-522.000000, -672.000000)" fill="#000000">
            <g id="noun_182908_cc" sketch:type="MSLayerGroup" transform="translate(522.500000, 672.500000)">
                <path d="M47.1135,17.697 L36.609,28.2 C35.4495,29.3595 33.5685,29.3595 32.406,28.2 L30.303,26.097 L40.8135,15.5925 L32.4075,7.1865 L21.9045,17.697 L19.8,15.5925 C18.639,14.433 18.639,12.5505 19.8,11.3895 L30.3045,0.885 C31.47,-0.2805 33.3465,-0.2805 34.5075,0.885 L47.115,13.494 C48.282,14.655 48.282,16.5315 47.1135,17.697 L47.1135,17.697 Z M26.1,30.306 L15.5955,40.8165 L7.185,32.4045 L17.7,21.9 L15.5955,19.7955 C14.43,18.6345 12.5535,18.6345 11.3925,19.7955 L0.882,30.306 C-0.2835,31.4655 -0.2835,33.342 0.882,34.503 L13.497,47.1165 C14.658,48.2775 16.533,48.2775 17.7,47.1165 L28.203,36.606 C29.3625,35.4465 29.3625,33.5715 28.203,32.403 L26.1,30.306 L26.1,30.306 Z M15.5955,32.4045 C16.7565,33.5715 18.6375,33.5715 19.7985,32.4045 L32.406,19.797 C33.567,18.636 33.567,16.755 32.406,15.594 C31.2465,14.4345 29.364,14.4345 28.203,15.594 L15.594,28.203 C14.43,29.361 14.43,31.2435 15.5955,32.4045 L15.5955,32.4045 Z" id="Shape" sketch:type="MSShapeGroup"></path>
            </g>
        </g>
    </g>
</svg>