<?xml version="1.0" encoding="UTF-8" standalone="no"?>
<svg width="32px" height="44px" viewBox="0 0 32 44" version="1.1" xmlns="http://www.w3.org/2000/svg" xmlns:xlink="http://www.w3.org/1999/xlink" xmlns:sketch="http://www.bohemiancoding.com/sketch/ns">
    <!-- Generator: Sketch 3.1.1 (8761) - http://www.bohemiancoding.com/sketch -->
    <title>icon-flag</title>
    <desc>Created with Sketch.</desc>
    <defs></defs>
    <g id="Page-1" stroke="none" stroke-width="1" fill="none" fill-rule="evenodd" sketch:type="MSPage">
        <g id="icon-flag" sketch:type="MSLayerGroup" transform="translate(1.000000, 1.000000)" fill="#000000">
            <g id="Welcome" sketch:type="MSShapeGroup">
                <g id="List-of-topics">
                    <g id="noun_10899_cc" transform="translate(-0.378049, -0.383929)">
                        <path d="M30.798196,4.36231884 C30.798196,3.47365218 30.337451,2.65228986 29.5879804,2.20671014 C28.8385098,1.76050724 27.9145882,1.7580145 27.1614706,2.1979855 C25.850353,2.967 20.2515098,5.2565942 16.8257059,2.42233334 C9.76925494,-3.41382608 1.27890196,2.02723188 0.921490198,2.26217392 C0.138588236,2.77505797 -0.248,3.66933334 -0.179313726,4.55675362 C-0.186,4.63091304 -0.201803922,4.70195652 -0.201803922,4.7779855 L-0.201803922,40.7153913 C-0.201803922,42.0920145 0.88745098,43.208145 2.22956862,43.208145 C3.57290196,43.208145 4.66094118,42.0920145 4.66094118,40.7153913 L4.66094118,26.6344492 C6.57139216,25.7376812 10.5612745,24.4196377 13.771902,27.0756666 C15.9990392,28.9178116 18.596353,29.5484782 21.0672353,29.5484782 C24.7039608,29.5484782 28.0683726,28.1824492 29.5727843,27.3000145 C30.4523334,26.7852608 30.8978824,25.7918986 30.7775294,24.8222174 C30.7836078,24.7530434 30.7975882,24.6863624 30.7975882,24.615942 L30.7975882,4.36231884 L30.798196,4.36231884 L30.798196,4.36231884 Z M16.8257059,23.1956956 C12.5999804,19.6996087 7.86184316,20.249884 4.66094118,21.3036956 L4.66094118,5.85797102 C6.57747059,4.95247826 10.5539804,3.63942029 13.771902,6.30230434 C17.5709216,9.44442026 22.4464314,9.0624058 25.935451,8.03663765 L25.935451,23.5502898 C23.7289804,24.4426956 19.5780196,25.4734492 16.8257059,23.1956956 L16.8257059,23.1956956 L16.8257059,23.1956956 Z" id="Shape"></path>
                    </g>
                </g>
            </g>
        </g>
    </g>
</svg>